<svg xmlns="http://www.w3.org/2000/svg" viewBox="0 0 400 400" role="img" aria-label="Platonic solid: icosahedron" style="width:100%;height:auto;display:block"><title>Platonic solid: icosahedron</title><desc>Exact regular-solid coordinates, orthographic wireframe; all edges shown.</desc><rect width="100%" height="100%" rx="18" fill="#0c1421"/><line x1="141.30959" y1="208.93917" x2="259.45382" y2="136.28605" stroke="#587eb7" stroke-width="1.6" /><line x1="141.30959" y1="208.93917" x2="259.16222" y2="270.82168" stroke="#587eb7" stroke-width="1.6" /><line x1="259.45382" y1="136.28605" x2="259.16222" y2="270.82168" stroke="#587eb7" stroke-width="1.6" /><line x1="141.30959" y1="208.93917" x2="141.30959" y2="80.047" stroke="#587eb7" stroke-width="1.6" /><line x1="259.45382" y1="136.28605" x2="141.30959" y2="80.047" stroke="#587eb7" stroke-width="1.6" /><line x1="141.30959" y1="208.93917" x2="140.83778" y2="297.73023" stroke="#587eb7" stroke-width="1.6" /><line x1="141.30959" y1="208.93917" x2="68.00084" y2="179.82499" stroke="#587eb7" stroke-width="1.6" /><line x1="259.45382" y1="136.28605" x2="331.99916" y2="180.17501" stroke="#587eb7" stroke-width="1.6" /><line x1="259.45382" y1="136.28605" x2="259.16222" y2="62.26977" stroke="#587eb7" stroke-width="1.6" /><line x1="140.83778" y1="297.73023" x2="259.16222" y2="270.82168" stroke="#587eb7" stroke-width="1.6" /><line x1="259.16222" y1="270.82168" x2="331.99916" y2="180.17501" stroke="#587eb7" stroke-width="1.6" /><line x1="68.00084" y1="179.82499" x2="141.30959" y2="80.047" stroke="#587eb7" stroke-width="1.6" /><line x1="141.30959" y1="80.047" x2="259.16222" y2="62.26977" stroke="#587eb7" stroke-width="1.6" /><line x1="258.69041" y1="279.953" x2="259.16222" y2="270.82168" stroke="#587eb7" stroke-width="1.6" /><line x1="140.83778" y1="297.73023" x2="68.00084" y2="179.82499" stroke="#587eb7" stroke-width="1.6" /><line x1="259.16222" y1="62.26977" x2="331.99916" y2="180.17501" stroke="#6bd8de" stroke-width="1.6" /><line x1="140.83778" y1="89.17832" x2="141.30959" y2="80.047" stroke="#6bd8de" stroke-width="1.6" /><line x1="140.83778" y1="297.73023" x2="258.69041" y2="279.953" stroke="#6bd8de" stroke-width="1.6" /><line x1="258.69041" y1="279.953" x2="331.99916" y2="180.17501" stroke="#6bd8de" stroke-width="1.6" /><line x1="68.00084" y1="179.82499" x2="140.83778" y2="89.17832" stroke="#6bd8de" stroke-width="1.6" /><line x1="140.83778" y1="89.17832" x2="259.16222" y2="62.26977" stroke="#6bd8de" stroke-width="1.6" /><line x1="140.83778" y1="297.73023" x2="140.54618" y2="223.71395" stroke="#6bd8de" stroke-width="1.6" /><line x1="68.00084" y1="179.82499" x2="140.54618" y2="223.71395" stroke="#6bd8de" stroke-width="1.6" /><line x1="258.69041" y1="151.06083" x2="331.99916" y2="180.17501" stroke="#6bd8de" stroke-width="1.6" /><line x1="258.69041" y1="151.06083" x2="259.16222" y2="62.26977" stroke="#6bd8de" stroke-width="1.6" /><line x1="258.69041" y1="279.953" x2="140.54618" y2="223.71395" stroke="#6bd8de" stroke-width="1.6" /><line x1="258.69041" y1="279.953" x2="258.69041" y2="151.06083" stroke="#6bd8de" stroke-width="1.6" /><line x1="140.83778" y1="89.17832" x2="140.54618" y2="223.71395" stroke="#6bd8de" stroke-width="1.6" /><line x1="140.83778" y1="89.17832" x2="258.69041" y2="151.06083" stroke="#6bd8de" stroke-width="1.6" /><line x1="140.54618" y1="223.71395" x2="258.69041" y2="151.06083" stroke="#6bd8de" stroke-width="1.6" /><circle cx="141.30959" cy="208.93917" r="2.7" fill="#e7bb71"/><circle cx="140.83778" cy="297.73023" r="2.7" fill="#e7bb71"/><circle cx="68.00084" cy="179.82499" r="2.7" fill="#e7bb71"/><circle cx="258.69041" cy="279.953" r="2.7" fill="#e7bb71"/><circle cx="140.83778" cy="89.17832" r="2.7" fill="#e7bb71"/><circle cx="259.45382" cy="136.28605" r="2.7" fill="#e7bb71"/><circle cx="141.30959" cy="80.047" r="2.7" fill="#e7bb71"/><circle cx="259.16222" cy="270.82168" r="2.7" fill="#e7bb71"/><circle cx="140.54618" cy="223.71395" r="2.7" fill="#e7bb71"/><circle cx="258.69041" cy="151.06083" r="2.7" fill="#e7bb71"/><circle cx="259.16222" cy="62.26977" r="2.7" fill="#e7bb71"/><circle cx="331.99916" cy="180.17501" r="2.7" fill="#e7bb71"/><text x="20" y="358" fill="#e8edf4" font-family="system-ui,sans-serif" font-size="18">Icosahedron</text><text x="20" y="380" fill="#9faec2" font-family="system-ui,sans-serif" font-size="12">V 12 · E 30 · F 20 · V − E + F = 2</text></svg>