<svg xmlns="http://www.w3.org/2000/svg" viewBox="0 0 400 400" role="img" aria-label="Platonic solid: octahedron" style="width:100%;height:auto;display:block"><title>Platonic solid: octahedron</title><desc>Exact regular-solid coordinates, orthographic wireframe; all edges shown.</desc><rect width="100%" height="100%" rx="18" fill="#0c1421"/><line x1="312.53324" y1="154.40845" x2="131.00529" y2="138.25912" stroke="#587eb7" stroke-width="1.6" /><line x1="200" y1="302.58373" x2="131.00529" y2="138.25912" stroke="#587eb7" stroke-width="1.6" /><line x1="312.53324" y1="154.40845" x2="200" y2="302.58373" stroke="#587eb7" stroke-width="1.6" /><line x1="200" y1="57.41627" x2="131.00529" y2="138.25912" stroke="#587eb7" stroke-width="1.6" /><line x1="87.46676" y1="205.59155" x2="131.00529" y2="138.25912" stroke="#587eb7" stroke-width="1.6" /><line x1="312.53324" y1="154.40845" x2="200" y2="57.41627" stroke="#587eb7" stroke-width="1.6" /><line x1="87.46676" y1="205.59155" x2="200" y2="302.58373" stroke="#6bd8de" stroke-width="1.6" /><line x1="312.53324" y1="154.40845" x2="268.99471" y2="221.74088" stroke="#6bd8de" stroke-width="1.6" /><line x1="200" y1="302.58373" x2="268.99471" y2="221.74088" stroke="#6bd8de" stroke-width="1.6" /><line x1="87.46676" y1="205.59155" x2="200" y2="57.41627" stroke="#6bd8de" stroke-width="1.6" /><line x1="200" y1="57.41627" x2="268.99471" y2="221.74088" stroke="#6bd8de" stroke-width="1.6" /><line x1="87.46676" y1="205.59155" x2="268.99471" y2="221.74088" stroke="#6bd8de" stroke-width="1.6" /><circle cx="87.46676" cy="205.59155" r="2.7" fill="#e7bb71"/><circle cx="312.53324" cy="154.40845" r="2.7" fill="#e7bb71"/><circle cx="200" cy="302.58373" r="2.7" fill="#e7bb71"/><circle cx="200" cy="57.41627" r="2.7" fill="#e7bb71"/><circle cx="131.00529" cy="138.25912" r="2.7" fill="#e7bb71"/><circle cx="268.99471" cy="221.74088" r="2.7" fill="#e7bb71"/><text x="20" y="358" fill="#e8edf4" font-family="system-ui,sans-serif" font-size="18">Octahedron</text><text x="20" y="380" fill="#9faec2" font-family="system-ui,sans-serif" font-size="12">V 6 · E 12 · F 8 · V − E + F = 2</text></svg>