<svg xmlns="http://www.w3.org/2000/svg" width="1584" height="396" viewBox="0 0 1584 396" role="img" aria-labelledby="title desc">
  <title id="title">LumenCore LinkedIn cover</title>
  <desc id="desc">LumenCore: decision-grade AI and forecast validation.</desc>
  <defs>
    <linearGradient id="background" x1="0" y1="0" x2="1" y2="1">
      <stop offset="0" stop-color="#061425"/>
      <stop offset="0.52" stop-color="#0a3150"/>
      <stop offset="1" stop-color="#071a31"/>
    </linearGradient>
    <radialGradient id="glow" cx="76%" cy="26%" r="70%">
      <stop offset="0" stop-color="#1ee7d2" stop-opacity=".38"/>
      <stop offset=".42" stop-color="#167fc7" stop-opacity=".18"/>
      <stop offset="1" stop-color="#061425" stop-opacity="0"/>
    </radialGradient>
    <linearGradient id="line" x1="0" y1="0" x2="1" y2="0">
      <stop offset="0" stop-color="#21eed7" stop-opacity="0"/>
      <stop offset=".4" stop-color="#21eed7" stop-opacity=".9"/>
      <stop offset="1" stop-color="#7ea8ff" stop-opacity="0"/>
    </linearGradient>
    <filter id="shadow" x="-10%" y="-30%" width="120%" height="160%">
      <feDropShadow dx="0" dy="6" stdDeviation="8" flood-color="#000" flood-opacity=".3"/>
    </filter>
  </defs>
  <rect width="1584" height="396" fill="url(#background)"/>
  <rect width="1584" height="396" fill="url(#glow)"/>
  <g fill="none" stroke="#5edcff" stroke-opacity=".16" stroke-width="1">
    <path d="M-20 316C156 234 220 351 398 270S664 191 808 244s265 6 417-78 256-40 379-78"/>
    <path d="M-20 344C164 262 240 372 407 302s300-109 446-53 282 5 428-74 223-45 323-83"/>
    <path d="M-10 87C159 151 280 54 421 105s237 111 395 64 249-90 405-26 255 39 382-12"/>
    <path d="M-8 111C166 173 288 80 429 132s233 109 392 63 256-91 409-26 251 36 370-11"/>
  </g>
  <g fill="#7beaff" fill-opacity=".65">
    <circle cx="1178" cy="91" r="4"/><circle cx="1290" cy="149" r="3"/><circle cx="1370" cy="85" r="5"/>
    <circle cx="1484" cy="181" r="3"/><circle cx="1185" cy="266" r="3"/><circle cx="1334" cy="293" r="5"/>
    <circle cx="1451" cy="271" r="3"/><circle cx="1530" cy="103" r="3"/>
  </g>
  <g transform="translate(158 70)" filter="url(#shadow)">
    <text x="0" y="42" fill="#dffcff" font-family="Inter, Arial, sans-serif" font-size="18" font-weight="700" letter-spacing="5">LUMENCORE</text>
    <rect x="0" y="64" width="590" height="2" fill="url(#line)"/>
    <text x="0" y="129" fill="#ffffff" font-family="Inter, Arial, sans-serif" font-size="44" font-weight="800" letter-spacing="-1">Decision-grade AI &amp; Forecast Validation</text>
    <text x="0" y="178" fill="#a8cce2" font-family="Inter, Arial, sans-serif" font-size="22" font-weight="500">Candidate vs. baseline evidence packs for defensible next decisions.</text>
    <g transform="translate(0 222)">
      <rect width="175" height="36" rx="18" fill="#103d5b" stroke="#2ee6d5" stroke-opacity=".55"/>
      <text x="88" y="24" text-anchor="middle" fill="#bffdf7" font-family="Inter, Arial, sans-serif" font-size="14" font-weight="700">LOCK THE RULES</text>
      <rect x="190" width="170" height="36" rx="18" fill="#103d5b" stroke="#65aaff" stroke-opacity=".55"/>
      <text x="275" y="24" text-anchor="middle" fill="#d4e7ff" font-family="Inter, Arial, sans-serif" font-size="14" font-weight="700">PRESERVE FAILURES</text>
      <rect x="375" width="170" height="36" rx="18" fill="#103d5b" stroke="#2ee6d5" stroke-opacity=".55"/>
      <text x="460" y="24" text-anchor="middle" fill="#bffdf7" font-family="Inter, Arial, sans-serif" font-size="14" font-weight="700">DECIDE CLEARLY</text>
    </g>
  </g>
  <g transform="translate(1370 274)" fill="#d6faff" font-family="Inter, Arial, sans-serif" text-anchor="end">
    <text x="0" y="0" font-size="15" font-weight="700" letter-spacing="2">EVIDENCE BEFORE CLAIMS</text>
    <text x="0" y="27" fill="#95c3dc" font-size="13">lumen-core.ai</text>
  </g>
</svg>